Coordinates
version=1
nRows=17
nColumns=40
inDegrees=yes

Units are S.I. units (second, meters, Newtons, ...)
Angles are in degrees.

endheader
time	pelvis_tilt	pelvis_list	pelvis_rotation	pelvis_tx	pelvis_ty	pelvis_tz	hip_flexion_r	hip_adduction_r	hip_rotation_r	knee_angle_r	knee_angle_r_beta	ankle_angle_r	subtalar_angle_r	mtp_angle_r	hip_flexion_l	hip_adduction_l	hip_rotation_l	knee_angle_l	knee_angle_l_beta	ankle_angle_l	subtalar_angle_l	mtp_angle_l	lumbar_extension	lumbar_bending	lumbar_rotation	arm_flex_r	arm_add_r	arm_rot_r	elbow_flex_r	pro_sup_r	wrist_flex_r	wrist_dev_r	arm_flex_l	arm_add_l	arm_rot_l	elbow_flex_l	pro_sup_l	wrist_flex_l	wrist_dev_l
     27.23578571	     -6.88490038	     -4.98361445	     12.58495495	      1.06706059	      0.91972938	      0.53388486	      9.26505595	      3.09948991	    -17.61060643	     17.54168587	     17.54168587	     16.78352508	     -8.45714937	     -1.72753103	     30.02066201	     -6.66397709	      2.99341540	     18.46935541	     18.46935541	      0.55484112	     -4.44946544	      0.07565167	     -7.73384800	      3.30511132	      2.71922261	     56.44018701	    -16.59363744	     -2.72827245	     95.78427891	     44.22411285	      0.00000000	      0.00000000	    -14.83568256	     -9.23534303	      8.36271463	     31.49312753	     45.38818975	      0.00000000	      0.00000000
     27.25657143	     -6.75808063	     -5.02717220	     12.58522517	      1.06900203	      0.91920251	      0.52979196	      8.63809772	      3.01097349	    -17.49894550	     17.51189967	     17.51189967	     17.08452257	     -8.44854636	     -1.74246697	     29.51632734	     -6.52693011	      3.17146184	     18.96007993	     18.96007993	      1.19150286	     -4.89585722	     -0.52642080	     -7.60669390	      3.21195905	      2.78233048	     56.91481680	    -15.89512696	     -2.30187634	     97.29868613	     44.17312402	      0.00000000	      0.00000000	    -14.38671215	     -9.33723581	      8.46768521	     31.49372376	     45.38377915	      0.00000000	      0.00000000
     27.27735714	     -6.68650802	     -5.07786371	     12.62852574	      1.07102909	      0.91884888	      0.52544993	      7.99835224	      2.90727242	    -17.49368144	     17.35927580	     17.35927580	     17.34905417	     -8.33232800	     -1.50035220	     29.04670189	     -6.32458953	      3.52738620	     19.32090363	     19.32090363	      1.47974418	     -5.61868367	     -1.67504556	     -7.48327470	      3.10621968	      3.29239321	     56.36448105	    -16.14339366	     -1.80219887	    100.88096089	     44.09308293	      0.00000000	      0.00000000	    -13.55946196	     -9.60992402	      8.89280208	     31.34031104	     45.35424892	      0.00000000	      0.00000000
     27.29814286	     -6.67015398	     -5.04127860	     12.61763915	      1.07296798	      0.91863032	      0.52103077	      7.43502390	      2.68937092	    -17.38658820	     17.25684107	     17.25684107	     17.49828837	     -8.31342896	     -1.48382116	     28.70123884	     -6.05592911	      3.74987119	     19.81716369	     19.81716369	      2.16867029	     -5.93782810	     -2.02687324	     -7.18574162	      2.87640911	      3.39024440	     56.34730893	    -15.58190641	     -1.53999829	    101.26932805	     44.07515769	      0.00000000	      0.00000000	    -12.99736749	     -9.90901356	      8.87490536	     31.44943729	     45.36603962	      0.00000000	      0.00000000
     27.31892857	     -6.47000641	     -5.13461071	     12.61282743	      1.07493384	      0.91884363	      0.51643128	      6.50851999	      2.67927326	    -17.45484678	     16.76646400	     16.76646400	     17.50283352	     -7.95686102	     -1.28023848	     28.40862996	     -5.89041322	      4.17862646	     20.65505990	     20.65505990	      2.88106555	     -6.79960309	     -2.13405053	     -7.24185690	      2.94696464	      3.23366945	     56.01354027	    -14.94750694	     -1.02383630	    103.50055690	     44.01090974	      0.00000000	      0.00000000	    -12.52985360	    -10.18568308	      9.01870633	     31.47967885	     45.36095840	      0.00000000	      0.00000000
     27.33971429	     -6.37955573	     -5.08496284	     12.50376522	      1.07671127	      0.91914577	      0.51186384	      5.83137669	      2.44848776	    -17.36544950	     16.56558073	     16.56558073	     17.47601136	     -7.77900800	     -1.19602569	     28.11806857	     -5.63462827	      4.29134045	     21.29676132	     21.29676132	      3.51263266	     -7.28435650	     -2.34447520	     -7.11866686	      2.77895092	      3.35806524	     55.67713272	    -14.61044051	     -0.76623118	    103.91208722	     43.99431072	      0.00000000	      0.00000000	    -11.91797688	    -10.57852187	      8.97369950	     31.66599669	     45.37794029	      0.00000000	      0.00000000
     27.36050000	     -6.25101475	     -5.15158267	     12.37989670	      1.07844495	      0.91970147	      0.50724424	      4.96639181	      2.37167757	    -17.42956594	     16.01719513	     16.01719513	     17.33350814	     -7.26996205	     -1.05351726	     27.83691252	     -5.46735247	      4.59305642	     21.95189805	     21.95189805	      4.22080003	     -7.90090098	     -2.27640904	     -7.05858232	      2.82807935	      3.52036827	     55.21189936	    -14.48589803	     -0.46167259	    104.82980151	     43.96703054	      0.00000000	      0.00000000	    -11.39015911	    -10.94562977	      8.93737774	     31.98677557	     45.39454856	      0.00000000	      0.00000000
     27.38128571	     -6.23237135	     -5.11120461	     12.16712832	      1.07986782	      0.92039263	      0.50273141	      4.33433448	      2.08818577	    -17.59333834	     15.69539900	     15.69539900	     17.13944695	     -6.53640079	     -1.05177256	     27.55094039	     -5.21830515	      4.65264537	     22.42505744	     22.42505744	      5.13962326	     -8.21485705	     -1.29361490	     -6.99795905	      2.68365197	      4.08621899	     54.48655153	    -14.95911692	     -0.26049050	    106.09660025	     43.97121692	      0.00000000	      0.00000000	    -10.70930289	    -11.51215463	      9.04237903	     32.82172513	     45.40660262	      0.00000000	      0.00000000
     27.40207143	     -6.24077576	     -5.12323534	     11.86390745	      1.08109393	      0.92106260	      0.49844294	      3.85627998	      1.87250144	    -17.45843493	     15.52257476	     15.52257476	     16.87387042	     -6.27451670	     -0.95009331	     27.26758337	     -5.09021961	      4.52707057	     22.76899843	     22.76899843	      5.62594939	     -8.52321505	     -1.40370955	     -6.85894827	      2.63277805	      4.22085823	     54.10333791	    -14.69360208	     -0.06303481	    105.95788607	     43.97291108	      0.00000000	      0.00000000	    -10.12009648	    -11.93954699	      8.98018698	     33.05821502	     45.42484534	      0.00000000	      0.00000000
     27.42285714	     -6.26512472	     -5.15596221	     11.51314469	      1.08212058	      0.92182768	      0.49427702	      3.43645963	      1.66227305	    -17.31611022	     15.37904096	     15.37904096	     16.57129207	     -5.94666272	     -0.86642101	     26.94510817	     -5.00405980	      4.35110417	     22.98977739	     22.98977739	      6.06654139	     -8.78463531	     -1.48081429	     -6.73878354	      2.64198429	      4.37026293	     53.71478595	    -14.48730131	      0.12944674	    105.73596257	     43.97578709	      0.00000000	      0.00000000	     -9.52571082	    -12.40771694	      8.89343172	     33.33683122	     45.44569055	      0.00000000	      0.00000000
     27.44364286	     -6.16734733	     -5.19813440	     11.13345368	      1.08314434	      0.92297118	      0.49014727	      2.75923096	      1.48433680	    -17.42053954	     14.96282877	     14.96282877	     16.13594464	     -5.07757395	     -0.90131790	     26.38132472	     -4.98648272	      4.05988865	     23.02190807	     23.02190807	      6.60667226	     -8.83463470	     -1.25210631	     -6.72276383	      2.67597688	      4.65045526	     53.26791496	    -14.71988620	      0.27550671	    104.79518402	     44.01477252	      0.00000000	      0.00000000	     -9.06955595	    -12.86374525	      8.85849684	     34.13452876	     45.46179998	      0.00000000	      0.00000000
     27.46442857	     -6.19841039	     -5.21044577	     10.69946761	      1.08382927	      0.92386113	      0.48618106	      2.45851207	      1.16454967	    -17.52939883	     14.97527303	     14.97527303	     15.68257259	     -4.34977853	     -1.45501176	     25.98373389	     -4.95179064	      3.59864672	     23.11574318	     23.11574318	      7.35523076	     -8.65406853	     -0.55229595	     -6.61938822	      2.69387357	      4.33801191	     53.16292726	    -14.17734702	      0.77707797	    103.32420558	     44.11036591	      0.00000000	      0.00000000	     -9.26590521	    -13.58631724	      9.23265113	     35.88555224	     45.43942055	      0.00000000	      0.00000000
     27.48521429	     -6.25578869	     -5.28657096	     10.21425666	      1.08435105	      0.92475905	      0.48242288	      2.27002763	      0.95246511	    -17.29427348	     15.06079520	     15.06079520	     15.30751479	     -4.08039982	     -1.40052097	     25.54551686	     -4.97432237	      3.22158604	     23.02629594	     23.02629594	      7.67641943	     -8.80825393	     -0.59938723	     -6.53590600	      2.80165940	      4.44205589	     52.61230187	    -14.03993957	      0.92065248	    102.87728613	     44.12143720	      0.00000000	      0.00000000	     -8.67801845	    -14.01662329	      9.14467503	     36.14381982	     45.45998411	      0.00000000	      0.00000000
     27.50600000	     -6.27122949	     -5.25745101	      9.70761945	      1.08484236	      0.92582893	      0.47863012	      1.99476629	      0.57565608	    -17.35937807	     15.10212686	     15.10212686	     14.87461229	     -3.27486614	     -1.75886946	     24.90245791	     -4.94685183	      2.59361562	     22.69431022	     22.69431022	      8.02442375	     -8.55300634	     -0.64447667	     -6.42896719	      2.77977836	      4.26073709	     52.33565777	    -13.72029171	      1.02972613	    100.41231725	     44.24308296	      0.00000000	      0.00000000	     -8.61006463	    -14.58873891	      9.49873801	     37.29049318	     45.44681763	      0.00000000	      0.00000000
     27.52678571	     -6.31098397	     -5.26767585	      9.14360643	      1.08517940	      0.92685044	      0.47498390	      1.82988084	      0.26118095	    -17.15718690	     15.23504081	     15.23504081	     14.50456877	     -2.80912485	     -1.80221499	     24.28304493	     -4.93242812	      2.06917303	     22.34126515	     22.34126515	      8.28400903	     -8.54531692	     -0.67224062	     -6.35968544	      2.82808422	      4.40723304	     51.59633003	    -13.83716171	      1.04028929	     99.13188909	     44.29304721	      0.00000000	      0.00000000	     -8.06653570	    -14.99551678	      9.48437582	     37.77398044	     45.46444780	      0.00000000	      0.00000000
     27.54757143	     -6.36788008	     -5.27803866	      8.56005416	      1.08541020	      0.92778549	      0.47142233	      1.72233358	     -0.09089400	    -17.05356869	     15.42358268	     15.42358268	     14.16627896	     -2.17005848	     -1.90275400	     23.68212470	     -4.91770845	      1.52955266	     21.97657516	     21.97657516	      8.54870673	     -8.53315339	     -0.73256727	     -6.28892834	      2.89182973	      4.46462212	     50.76856242	    -13.79595396	      1.00622511	     97.45757601	     44.35571004	      0.00000000	      0.00000000	     -7.60059000	    -15.39442882	      9.55027733	     38.24618899	     45.47163492	      0.00000000	      0.00000000
     27.56835714	     -6.39246879	     -5.33930963	      7.97134917	      1.08555674	      0.92864452	      0.46787608	      1.63391740	     -0.38290639	    -16.84573035	     15.67264881	     15.67264881	     13.86306283	     -1.66340177	     -1.96686741	     23.13737409	     -4.93383182	      1.03485750	     21.74780679	     21.74780679	      8.81581146	     -8.67338899	     -0.76818900	     -6.25584086	      3.07073567	      4.41966826	     49.59434369	    -13.65477712	      1.08815774	     96.21204544	     44.39302041	      0.00000000	      0.00000000	     -7.07439017	    -15.66609470	      9.57259145	     38.57763968	     45.48020540	      0.00000000	      0.00000000
